<svg className="w-full" width="1030" height="1032" viewBox="0 0 1030 1032" fill="none" xmlns="http://www.w3.org/2000/svg">
    <g id="Pattern stars">
        <rect id="Gradient" width="1030" height="1030" fill="url(#paint0_radial_2285_71)" fill-opacity="0.25"></rect>
        <g id="ring-8">
            <path id="Vector" fill-rule="evenodd" clip-rule="evenodd" d="M515 309.351C401.423 309.351 309.351 401.423 309.351 515C309.351 628.576 401.423 720.648 515 720.648C628.576 720.648 720.648 628.576 720.648 515C720.648 401.423 628.576 309.351 515 309.351ZM307.594 515C307.594 400.453 400.453 307.594 515 307.594C629.547 307.594 722.406 400.453 722.406 515C722.406 629.547 629.547 722.406 515 722.406C400.453 722.406 307.594 629.547 307.594 515Z" fill="url(#paint1_radial_2285_71)"></path>
            <path id="Vector_2" d="M515 309.351C401.423 309.351 309.351 401.423 309.351 515H307.594C307.594 400.453 400.453 307.594 515 307.594V309.351Z" fill="url(#paint2_linear_2285_71)"></path>
            <circle id="Ellipse 73" cx="515.5" cy="308.5" r="2.5" fill="#5D65D1"></circle>
        </g>
        <g id="ring-7">
            <path id="Vector_3" fill-rule="evenodd" clip-rule="evenodd" d="M515 265.41C377.155 265.41 265.41 377.155 265.41 515C265.41 652.845 377.155 764.59 515 764.59C652.845 764.59 764.591 652.845 764.591 515C764.591 377.155 652.845 265.41 515 265.41ZM263.652 515C263.652 376.184 376.185 263.652 515 263.652C653.816 263.652 766.349 376.184 766.349 515C766.349 653.816 653.816 766.348 515 766.348C376.185 766.348 263.652 653.816 263.652 515Z" fill="url(#paint3_radial_2285_71)"></path>
            <g id="Vector_4" opacity="0.85">
                <path d="M756.29 444.372L754.641 445C731.052 364.105 667.613 300.198 587 275.951L587.727 274.334C668.758 298.787 732.524 363.045 756.29 444.372Z" fill="url(#paint4_linear_2285_71)"></path>
                <path d="M758 444.5C758 445.881 756.881 447 755.5 447C754.119 447 753 445.881 753 444.5C753 443.119 754.119 442 755.5 442C756.881 442 758 443.119 758 444.5Z" fill="#5D65D1"></path>
            </g>
        </g>
        <g id="ring-6">
            <path id="Vector_5" fill-rule="evenodd" clip-rule="evenodd" d="M514.999 221.468C352.886 221.468 221.467 352.887 221.467 515C221.467 677.114 352.886 808.533 514.999 808.533C677.113 808.533 808.532 677.114 808.532 515C808.532 352.887 677.113 221.468 514.999 221.468ZM219.709 515C219.709 351.916 351.915 219.71 514.999 219.71C678.083 219.71 810.289 351.916 810.289 515C810.289 678.084 678.083 810.29 514.999 810.29C351.915 810.29 219.709 678.084 219.709 515Z" fill="url(#paint5_radial_2285_71)"></path>
            <g id="Vector_6" opacity="0.75">
                <path d="M514.999 810.29C375.675 810.29 258.887 713.8 227.814 584L229.502 583.5C260.358 712.573 376.472 808.533 514.999 808.533C536.093 808.533 556.667 806.308 576.5 802.079L577 803.77C557.008 808.042 536.266 810.29 514.999 810.29Z" fill="url(#paint6_linear_2285_71)"></path>
                <path d="M231 583.5C231 584.881 229.881 586 228.5 586C227.119 586 226 584.881 226 583.5C226 582.119 227.119 581 228.5 581C229.881 581 231 582.119 231 583.5Z" fill="#5D65D1"></path>
            </g>
        </g>
        <g id="ring-5">
            <path id="Vector_7" fill-rule="evenodd" clip-rule="evenodd" d="M515 177.525C328.618 177.525 177.525 328.618 177.525 515C177.525 701.382 328.618 852.474 515 852.474C701.382 852.474 852.474 701.382 852.474 515C852.474 328.618 701.382 177.525 515 177.525ZM175.768 515C175.768 327.647 327.647 175.768 515 175.768C702.352 175.768 854.232 327.647 854.232 515C854.232 702.353 702.352 854.232 515 854.232C327.647 854.232 175.768 702.353 175.768 515Z" fill="url(#paint7_radial_2285_71)"></path>
            <g id="Vector_8" opacity="0.65">
                <path d="M175.768 515C175.768 390.008 243.367 280.805 344 221.956L345 223.407C244.825 281.936 177.525 390.609 177.525 515C177.525 556.322 184.952 595.909 198.543 632.5L197.04 633.5C183.286 596.611 175.768 556.683 175.768 515Z" fill="url(#paint8_linear_2285_71)"></path>
                <path d="M347 222.5C347 223.881 345.881 225 344.5 225C343.119 225 342 223.881 342 222.5C342 221.119 343.119 220 344.5 220C345.881 220 347 221.119 347 222.5Z" fill="#5D65D1"></path>
            </g>
        </g>
        <g id="ring-4">
            <path id="Vector_9" fill-rule="evenodd" clip-rule="evenodd" d="M515 133.584C304.35 133.584 133.584 304.35 133.584 515C133.584 725.651 304.35 896.417 515 896.417C725.651 896.417 896.417 725.651 896.417 515C896.417 304.35 725.651 133.584 515 133.584ZM131.826 515C131.826 303.379 303.379 131.826 515 131.826C726.621 131.826 898.174 303.379 898.174 515C898.174 726.621 726.621 898.174 515 898.174C303.379 898.174 131.826 726.621 131.826 515Z" fill="url(#paint9_radial_2285_71)"></path>
            <g id="Vector_10" opacity="0.45">
                <path d="M835.413 722C874.008 662.382 896.417 591.308 896.417 515C896.417 405.317 850.119 306.447 776 236.866L777.5 235.864C851.787 305.75 898.174 404.958 898.174 515C898.174 591.679 875.651 663.097 836.859 723L835.413 722Z" fill="url(#paint10_linear_2285_71)"></path>
                <path d="M839 722.5C839 723.881 837.881 725 836.5 725C835.119 725 834 723.881 834 722.5C834 721.119 835.119 720 836.5 720C837.881 720 839 721.119 839 722.5Z" fill="#5D65D1"></path>
            </g>
        </g>
        <g id="ring-3">
            <path id="Vector_11" fill-rule="evenodd" clip-rule="evenodd" d="M514.999 45.6996C255.812 45.6996 45.6991 255.812 45.6991 515C45.6991 774.187 255.812 984.3 514.999 984.3C774.187 984.3 984.3 774.187 984.3 515C984.3 255.812 774.187 45.6996 514.999 45.6996ZM43.9414 515C43.9414 254.842 254.841 43.9419 514.999 43.9419C775.158 43.9419 986.057 254.842 986.057 515C986.057 775.158 775.158 986.058 514.999 986.058C254.841 986.058 43.9414 775.158 43.9414 515Z" fill="url(#paint11_radial_2285_71)"></path>
            <g id="Vector_12" opacity="0.25">
                <path d="M514.999 986.058C387.954 986.058 272.656 935.764 187.929 854L189.199 852.783C273.605 934.213 388.453 984.3 514.999 984.3C616.61 984.3 710.677 952.008 787.5 897.126L788.5 898.572C711.393 953.651 616.981 986.058 514.999 986.058Z" fill="url(#paint12_linear_2285_71)"></path>
                <path d="M191 853.5C191 854.881 189.881 856 188.5 856C187.119 856 186 854.881 186 853.5C186 852.119 187.119 851 188.5 851C189.881 851 191 852.119 191 853.5Z" fill="#5D65D1"></path>
            </g>
        </g>
        <g id="ring-2">
            <path id="Vector_13" fill-rule="evenodd" clip-rule="evenodd" d="M515.001 89.6415C280.082 89.6415 89.6424 280.081 89.6424 515C89.6424 749.919 280.082 940.358 515.001 940.358C749.92 940.358 940.359 749.919 940.359 515C940.359 280.081 749.92 89.6415 515.001 89.6415ZM87.8848 515C87.8848 279.11 279.111 87.8838 515.001 87.8838C750.89 87.8838 942.117 279.11 942.117 515C942.117 750.89 750.89 942.116 515.001 942.116C279.111 942.116 87.8848 750.89 87.8848 515Z" fill="url(#paint13_radial_2285_71)"></path>
            <path id="Vector_14" d="M707 135.337C649.321 106.111 584.084 89.6415 515 89.6415C396.66 89.6415 289.607 137.968 212.5 215.963L210.98 215C288.426 136.523 396.033 87.8838 515 87.8838C584.452 87.8838 650.032 104.46 708 133.873L707 135.337Z" fill="url(#paint14_linear_2285_71)"></path>
            <circle id="Ellipse 79" cx="707.5" cy="134.5" r="2.5" fill="#5D65D1"></circle>
        </g>
        <g id="ring-1">
            <path id="Vector_15" fill-rule="evenodd" clip-rule="evenodd" d="M515 1.75768C231.544 1.75768 1.75768 231.544 1.75768 515C1.75768 798.456 231.544 1028.24 515 1028.24C798.456 1028.24 1028.24 798.456 1028.24 515C1028.24 231.544 798.456 1.75768 515 1.75768ZM0 515C0 230.573 230.573 0 515 0C799.427 0 1030 230.573 1030 515C1030 799.427 799.427 1030 515 1030C230.573 1030 0 799.427 0 515Z" fill="url(#paint15_radial_2285_71)"></path>
            <g id="Vector_16" opacity="0.15">
                <path d="M515 1028.24C798.456 1028.24 1028.24 798.456 1028.24 515H1030C1030 799.427 799.427 1030 515 1030V1028.24Z" fill="url(#paint16_linear_2285_71)"></path>
                <path d="M517 1029.5C517 1030.88 515.881 1032 514.5 1032C513.119 1032 512 1030.88 512 1029.5C512 1028.12 513.119 1027 514.5 1027C515.881 1027 517 1028.12 517 1029.5Z" fill="#5D65D1"></path>
            </g>
        </g>
    </g>
    <defs>
        <radialGradient id="paint0_radial_2285_71" cx="0" cy="0" r="1" gradientUnits="userSpaceOnUse" gradientTransform="translate(515 407) rotate(90) scale(350 500.167)">
            <stop stop-color="#5D65D1"></stop>
            <stop offset="1" stop-color="#5D65D1" stop-opacity="0"></stop>
        </radialGradient>
        <radialGradient id="paint1_radial_2285_71" cx="0" cy="0" r="1" gradientUnits="userSpaceOnUse" gradientTransform="translate(507.31 466.444) rotate(90) scale(507.556 506.282)">
            <stop stop-color="#7795F8"></stop>
            <stop offset="1" stop-color="#7795F8" stop-opacity="0"></stop>
        </radialGradient>
        <linearGradient id="paint2_linear_2285_71" x1="515" y1="308" x2="308" y2="515" gradientUnits="userSpaceOnUse">
            <stop stop-color="#5D65D1"></stop>
            <stop offset="0.484375" stop-color="#5D65D1" stop-opacity="0"></stop>
        </linearGradient>
        <radialGradient id="paint3_radial_2285_71" cx="0" cy="0" r="1" gradientUnits="userSpaceOnUse" gradientTransform="translate(507.31 466.444) rotate(90) scale(507.556 506.282)">
            <stop stop-color="#7795F8"></stop>
            <stop offset="1" stop-color="#7795F8" stop-opacity="0"></stop>
        </radialGradient>
        <linearGradient id="paint4_linear_2285_71" x1="757.707" y1="447" x2="586.724" y2="274.269" gradientUnits="userSpaceOnUse">
            <stop stop-color="#5D65D1"></stop>
            <stop offset="0.501462" stop-color="#5D65D1" stop-opacity="0"></stop>
        </linearGradient>
        <radialGradient id="paint5_radial_2285_71" cx="0" cy="0" r="1" gradientUnits="userSpaceOnUse" gradientTransform="translate(507.31 466.444) rotate(90) scale(507.556 506.282)">
            <stop stop-color="#7795F8"></stop>
            <stop offset="1" stop-color="#7795F8" stop-opacity="0"></stop>
        </radialGradient>
        <linearGradient id="paint6_linear_2285_71" x1="226.187" y1="580.494" x2="578.203" y2="808.136" gradientUnits="userSpaceOnUse">
            <stop stop-color="#5D65D1"></stop>
            <stop offset="0.407101" stop-color="#5D65D1" stop-opacity="0"></stop>
        </linearGradient>
        <radialGradient id="paint7_radial_2285_71" cx="0" cy="0" r="1" gradientUnits="userSpaceOnUse" gradientTransform="translate(507.31 466.444) rotate(90) scale(507.556 506.282)">
            <stop stop-color="#7795F8"></stop>
            <stop offset="1" stop-color="#7795F8" stop-opacity="0"></stop>
        </radialGradient>
        <linearGradient id="paint8_linear_2285_71" x1="347" y1="220.044" x2="178.043" y2="633.83" gradientUnits="userSpaceOnUse">
            <stop stop-color="#5D65D1"></stop>
            <stop offset="0.43937" stop-color="#5D65D1" stop-opacity="0"></stop>
        </linearGradient>
        <radialGradient id="paint9_radial_2285_71" cx="0" cy="0" r="1" gradientUnits="userSpaceOnUse" gradientTransform="translate(507.31 466.444) rotate(90) scale(507.556 506.282)">
            <stop stop-color="#7795F8"></stop>
            <stop offset="1" stop-color="#7795F8" stop-opacity="0"></stop>
        </radialGradient>
        <linearGradient id="paint10_linear_2285_71" x1="776" y1="236.001" x2="837.494" y2="724.938" gradientUnits="userSpaceOnUse">
            <stop offset="0.583553" stop-color="#5D65D1" stop-opacity="0"></stop>
            <stop offset="1" stop-color="#5D65D1"></stop>
        </linearGradient>
        <radialGradient id="paint11_radial_2285_71" cx="0" cy="0" r="1" gradientUnits="userSpaceOnUse" gradientTransform="translate(507.31 466.444) rotate(90) scale(507.556 506.282)">
            <stop stop-color="#7795F8"></stop>
            <stop offset="1" stop-color="#7795F8" stop-opacity="0"></stop>
        </radialGradient>
        <linearGradient id="paint12_linear_2285_71" x1="186.071" y1="851.22" x2="789.068" y2="895.917" gradientUnits="userSpaceOnUse">
            <stop stop-color="#5D65D1"></stop>
            <stop offset="0.385013" stop-color="#5D65D1" stop-opacity="0"></stop>
        </linearGradient>
        <radialGradient id="paint13_radial_2285_71" cx="0" cy="0" r="1" gradientUnits="userSpaceOnUse" gradientTransform="translate(507.31 466.444) rotate(90) scale(507.556 506.282)">
            <stop stop-color="#7795F8"></stop>
            <stop offset="1" stop-color="#7795F8" stop-opacity="0"></stop>
        </radialGradient>
        <linearGradient id="paint14_linear_2285_71" x1="708" y1="133" x2="211" y2="216" gradientUnits="userSpaceOnUse">
            <stop stop-color="#5D65D1"></stop>
            <stop offset="0.423482" stop-color="#5D65D1" stop-opacity="0"></stop>
        </linearGradient>
        <radialGradient id="paint15_radial_2285_71" cx="0" cy="0" r="1" gradientUnits="userSpaceOnUse" gradientTransform="translate(507.31 466.444) rotate(90) scale(507.556 506.282)">
            <stop stop-color="#7795F8"></stop>
            <stop offset="1" stop-color="#7795F8" stop-opacity="0"></stop>
        </radialGradient>
        <linearGradient id="paint16_linear_2285_71" x1="1030" y1="515" x2="513.001" y2="1033" gradientUnits="userSpaceOnUse">
            <stop offset="0.652331" stop-color="#5D65D1" stop-opacity="0"></stop>
            <stop offset="1" stop-color="#5D65D1"></stop>
        </linearGradient>
    </defs>
</svg>